<mxfile host="65bd71144e">
    <diagram name="PÃ¡gina-1" id="5IYVISFDPhbTJzhNTbnA">
        <mxGraphModel dx="1564" dy="12" grid="1" gridSize="10" guides="1" tooltips="1" connect="1" arrows="1" fold="1" page="1" pageScale="1" pageWidth="827" pageHeight="1169" math="0" shadow="0">
            <root>
                <mxCell id="0"/>
                <mxCell id="1" parent="0"/>
                <mxCell id="11" value="" style="whiteSpace=wrap;html=1;dashed=1;" vertex="1" parent="1">
                    <mxGeometry x="760" y="1420" width="950" height="510" as="geometry"/>
                </mxCell>
                <mxCell id="XyzaqsAfcItFlxQhjwxU-44" style="edgeStyle=orthogonalEdgeStyle;rounded=0;orthogonalLoop=1;jettySize=auto;html=1;exitX=0.025;exitY=0.75;exitDx=0;exitDy=0;entryX=1;entryY=0.75;entryDx=0;entryDy=0;exitPerimeter=0;" parent="1" source="XyzaqsAfcItFlxQhjwxU-45" target="XyzaqsAfcItFlxQhjwxU-59" edge="1">
                    <mxGeometry relative="1" as="geometry">
                        <mxPoint x="1260" y="1782.4285714285716" as="targetPoint"/>
                    </mxGeometry>
                </mxCell>
                <mxCell id="XyzaqsAfcItFlxQhjwxU-45" value="" style="rounded=0;whiteSpace=wrap;html=1;" parent="1" vertex="1">
                    <mxGeometry x="1463" y="1520" width="120" height="350" as="geometry"/>
                </mxCell>
                <mxCell id="XyzaqsAfcItFlxQhjwxU-46" value="clk" style="text;html=1;align=center;verticalAlign=middle;whiteSpace=wrap;rounded=0;fontStyle=0;fontSize=11;" parent="1" vertex="1">
                    <mxGeometry x="1341.75" y="1550" width="30" height="30" as="geometry"/>
                </mxCell>
                <mxCell id="XyzaqsAfcItFlxQhjwxU-47" value="reset" style="text;html=1;align=center;verticalAlign=middle;whiteSpace=wrap;rounded=0;fontStyle=0;fontSize=11;" parent="1" vertex="1">
                    <mxGeometry x="1344" y="1580" width="35" height="30" as="geometry"/>
                </mxCell>
                <mxCell id="XyzaqsAfcItFlxQhjwxU-48" value="write" style="text;html=1;align=center;verticalAlign=middle;whiteSpace=wrap;rounded=0;fontStyle=0;fontSize=11;" parent="1" vertex="1">
                    <mxGeometry x="1348" y="1620" width="17.5" height="20" as="geometry"/>
                </mxCell>
                <mxCell id="XyzaqsAfcItFlxQhjwxU-49" value="[addr_width] addr" style="text;html=1;align=center;verticalAlign=middle;whiteSpace=wrap;rounded=0;fontSize=11;" parent="1" vertex="1">
                    <mxGeometry x="1308.38" y="1650" width="106.25" height="10" as="geometry"/>
                </mxCell>
                <mxCell id="XyzaqsAfcItFlxQhjwxU-50" value="[data_width] data" style="text;html=1;align=center;verticalAlign=middle;whiteSpace=wrap;rounded=0;fontSize=11;" parent="1" vertex="1">
                    <mxGeometry x="1314.63" y="1680" width="100" height="10" as="geometry"/>
                </mxCell>
                <mxCell id="XyzaqsAfcItFlxQhjwxU-51" value="[data_width] data_mask" style="text;html=1;align=center;verticalAlign=middle;whiteSpace=wrap;rounded=0;fontSize=11;" parent="1" vertex="1">
                    <mxGeometry x="1308.38" y="1710" width="130" height="10" as="geometry"/>
                </mxCell>
                <mxCell id="XyzaqsAfcItFlxQhjwxU-52" value="&lt;font style=&quot;font-size: 11px;&quot;&gt;[&lt;span data-teams=&quot;true&quot;&gt;data_width] rdata&lt;/span&gt;&lt;/font&gt;" style="text;html=1;align=center;verticalAlign=middle;whiteSpace=wrap;rounded=0;fontStyle=0" parent="1" vertex="1">
                    <mxGeometry x="1302.75" y="1760" width="108" height="30" as="geometry"/>
                </mxCell>
                <mxCell id="XyzaqsAfcItFlxQhjwxU-53" value="&lt;font style=&quot;font-size: 10px;&quot;&gt;read&lt;/font&gt;" style="text;html=1;align=center;verticalAlign=middle;whiteSpace=wrap;rounded=0;fontStyle=0" parent="1" vertex="1">
                    <mxGeometry x="1331.5" y="1790" width="60" height="30" as="geometry"/>
                </mxCell>
                <mxCell id="XyzaqsAfcItFlxQhjwxU-54" value="&lt;font style=&quot;font-size: 10px;&quot;&gt;error&lt;/font&gt;" style="text;html=1;align=center;verticalAlign=middle;whiteSpace=wrap;rounded=0;fontStyle=0" parent="1" vertex="1">
                    <mxGeometry x="1331.5" y="1820" width="60" height="30" as="geometry"/>
                </mxCell>
                <mxCell id="XyzaqsAfcItFlxQhjwxU-55" value="enable" style="text;html=1;align=center;verticalAlign=middle;whiteSpace=wrap;rounded=0;fontStyle=0;fontSize=11;" parent="1" vertex="1">
                    <mxGeometry x="1326.75" y="1730" width="60" height="30" as="geometry"/>
                </mxCell>
                <mxCell id="XyzaqsAfcItFlxQhjwxU-56" value="" style="endArrow=classic;html=1;rounded=0;" parent="1" edge="1">
                    <mxGeometry width="50" height="50" relative="1" as="geometry">
                        <mxPoint x="1520.5" y="1870" as="sourcePoint"/>
                        <mxPoint x="1520.5" y="2040" as="targetPoint"/>
                    </mxGeometry>
                </mxCell>
                <mxCell id="10" style="edgeStyle=none;html=1;exitX=0.5;exitY=1;exitDx=0;exitDy=0;entryX=0.5;entryY=0;entryDx=0;entryDy=0;" edge="1" parent="1" source="XyzaqsAfcItFlxQhjwxU-57" target="XyzaqsAfcItFlxQhjwxU-45">
                    <mxGeometry relative="1" as="geometry"/>
                </mxCell>
                <mxCell id="XyzaqsAfcItFlxQhjwxU-57" value="hardware_input" style="text;html=1;align=center;verticalAlign=middle;whiteSpace=wrap;rounded=0;" parent="1" vertex="1">
                    <mxGeometry x="1493" y="1250" width="60" height="30" as="geometry"/>
                </mxCell>
                <mxCell id="XyzaqsAfcItFlxQhjwxU-58" value="hardware_output" style="text;html=1;align=center;verticalAlign=middle;whiteSpace=wrap;rounded=0;" parent="1" vertex="1">
                    <mxGeometry x="1493" y="2050" width="60" height="30" as="geometry"/>
                </mxCell>
                <mxCell id="XyzaqsAfcItFlxQhjwxU-59" value="&lt;span data-teams=&quot;true&quot;&gt;&lt;font style=&quot;font-size: 11px;&quot;&gt;bus2Reg_intf&lt;/font&gt;&lt;/span&gt;" style="rounded=0;whiteSpace=wrap;html=1;" parent="1" vertex="1">
                    <mxGeometry x="1120" y="1520" width="120" height="350" as="geometry"/>
                </mxCell>
                <mxCell id="6" style="edgeStyle=orthogonalEdgeStyle;html=1;entryX=0.5;entryY=0;entryDx=0;entryDy=0;" edge="1" parent="1" source="XyzaqsAfcItFlxQhjwxU-62" target="XyzaqsAfcItFlxQhjwxU-59">
                    <mxGeometry relative="1" as="geometry"/>
                </mxCell>
                <mxCell id="7" style="edgeStyle=orthogonalEdgeStyle;html=1;exitX=0.5;exitY=1;exitDx=0;exitDy=0;entryX=0.5;entryY=0;entryDx=0;entryDy=0;" edge="1" parent="1" source="XyzaqsAfcItFlxQhjwxU-62" target="3">
                    <mxGeometry relative="1" as="geometry"/>
                </mxCell>
                <mxCell id="13" style="edgeStyle=orthogonalEdgeStyle;html=1;exitX=0;exitY=0.5;exitDx=0;exitDy=0;entryX=0.5;entryY=0;entryDx=0;entryDy=0;" edge="1" parent="1" source="XyzaqsAfcItFlxQhjwxU-62" target="2">
                    <mxGeometry relative="1" as="geometry"/>
                </mxCell>
                <mxCell id="XyzaqsAfcItFlxQhjwxU-62" value="instancia" style="rhombus;whiteSpace=wrap;html=1;" parent="1" vertex="1">
                    <mxGeometry x="1040" y="1310" width="80" height="80" as="geometry"/>
                </mxCell>
                <mxCell id="XyzaqsAfcItFlxQhjwxU-63" style="edgeStyle=orthogonalEdgeStyle;rounded=0;orthogonalLoop=1;jettySize=auto;html=1;entryX=0.5;entryY=0;entryDx=0;entryDy=0;" parent="1" source="XyzaqsAfcItFlxQhjwxU-64" target="XyzaqsAfcItFlxQhjwxU-62" edge="1">
                    <mxGeometry relative="1" as="geometry"/>
                </mxCell>
                <mxCell id="XyzaqsAfcItFlxQhjwxU-64" value="script_bus_decision" style="rounded=0;whiteSpace=wrap;html=1;" parent="1" vertex="1">
                    <mxGeometry x="1020" y="1200" width="120" height="60" as="geometry"/>
                </mxCell>
                <mxCell id="XyzaqsAfcItFlxQhjwxU-68" value="" style="endArrow=classic;html=1;rounded=0;entryX=1.02;entryY=0.854;entryDx=0;entryDy=0;entryPerimeter=0;exitX=0.014;exitY=0.85;exitDx=0;exitDy=0;exitPerimeter=0;" parent="1" target="XyzaqsAfcItFlxQhjwxU-59" edge="1" source="XyzaqsAfcItFlxQhjwxU-45">
                    <mxGeometry width="50" height="50" relative="1" as="geometry">
                        <mxPoint x="1532.5" y="1820" as="sourcePoint"/>
                        <mxPoint x="1262.5" y="1820" as="targetPoint"/>
                    </mxGeometry>
                </mxCell>
                <mxCell id="XyzaqsAfcItFlxQhjwxU-69" value="" style="endArrow=classic;html=1;rounded=0;entryX=0.996;entryY=0.944;entryDx=0;entryDy=0;entryPerimeter=0;exitX=0.01;exitY=0.932;exitDx=0;exitDy=0;exitPerimeter=0;" parent="1" target="XyzaqsAfcItFlxQhjwxU-59" edge="1" source="XyzaqsAfcItFlxQhjwxU-45">
                    <mxGeometry width="50" height="50" relative="1" as="geometry">
                        <mxPoint x="1532.5" y="1850" as="sourcePoint"/>
                        <mxPoint x="1262.5" y="1850" as="targetPoint"/>
                    </mxGeometry>
                </mxCell>
                <mxCell id="XyzaqsAfcItFlxQhjwxU-70" value="" style="endArrow=classic;html=1;rounded=0;exitX=1;exitY=0.143;exitDx=0;exitDy=0;exitPerimeter=0;entryX=0.017;entryY=0.166;entryDx=0;entryDy=0;entryPerimeter=0;" parent="1" edge="1" target="XyzaqsAfcItFlxQhjwxU-45">
                    <mxGeometry width="50" height="50" relative="1" as="geometry">
                        <mxPoint x="1240" y="1580.05" as="sourcePoint"/>
                        <mxPoint x="1532.5" y="1580" as="targetPoint"/>
                    </mxGeometry>
                </mxCell>
                <mxCell id="XyzaqsAfcItFlxQhjwxU-71" value="" style="endArrow=classic;html=1;rounded=0;exitX=0.993;exitY=0.171;exitDx=0;exitDy=0;exitPerimeter=0;entryX=0.006;entryY=0.262;entryDx=0;entryDy=0;entryPerimeter=0;" parent="1" edge="1" target="XyzaqsAfcItFlxQhjwxU-45">
                    <mxGeometry width="50" height="50" relative="1" as="geometry">
                        <mxPoint x="1239" y="1610" as="sourcePoint"/>
                        <mxPoint x="1532.5" y="1610" as="targetPoint"/>
                    </mxGeometry>
                </mxCell>
                <mxCell id="XyzaqsAfcItFlxQhjwxU-72" value="" style="endArrow=classic;html=1;rounded=0;exitX=0.993;exitY=0.171;exitDx=0;exitDy=0;exitPerimeter=0;entryX=0.01;entryY=0.339;entryDx=0;entryDy=0;entryPerimeter=0;" parent="1" edge="1" target="XyzaqsAfcItFlxQhjwxU-45">
                    <mxGeometry width="50" height="50" relative="1" as="geometry">
                        <mxPoint x="1239" y="1640" as="sourcePoint"/>
                        <mxPoint x="1532.5" y="1640" as="targetPoint"/>
                    </mxGeometry>
                </mxCell>
                <mxCell id="XyzaqsAfcItFlxQhjwxU-73" value="" style="endArrow=classic;html=1;rounded=0;exitX=0.993;exitY=0.171;exitDx=0;exitDy=0;exitPerimeter=0;entryX=0.025;entryY=0.685;entryDx=0;entryDy=0;entryPerimeter=0;" parent="1" edge="1" target="XyzaqsAfcItFlxQhjwxU-45">
                    <mxGeometry width="50" height="50" relative="1" as="geometry">
                        <mxPoint x="1239" y="1760" as="sourcePoint"/>
                        <mxPoint x="1532.5" y="1760" as="targetPoint"/>
                    </mxGeometry>
                </mxCell>
                <mxCell id="XyzaqsAfcItFlxQhjwxU-74" value="" style="endArrow=classic;html=1;rounded=0;exitX=0.993;exitY=0.171;exitDx=0;exitDy=0;exitPerimeter=0;entryX=0.021;entryY=0.601;entryDx=0;entryDy=0;entryPerimeter=0;" parent="1" edge="1" target="XyzaqsAfcItFlxQhjwxU-45">
                    <mxGeometry width="50" height="50" relative="1" as="geometry">
                        <mxPoint x="1239" y="1730" as="sourcePoint"/>
                        <mxPoint x="1532.5" y="1730" as="targetPoint"/>
                    </mxGeometry>
                </mxCell>
                <mxCell id="XyzaqsAfcItFlxQhjwxU-75" value="" style="endArrow=classic;html=1;rounded=0;exitX=0.993;exitY=0.171;exitDx=0;exitDy=0;exitPerimeter=0;entryX=0.01;entryY=0.512;entryDx=0;entryDy=0;entryPerimeter=0;" parent="1" edge="1" target="XyzaqsAfcItFlxQhjwxU-45">
                    <mxGeometry width="50" height="50" relative="1" as="geometry">
                        <mxPoint x="1240" y="1700" as="sourcePoint"/>
                        <mxPoint x="1533.5" y="1700" as="targetPoint"/>
                    </mxGeometry>
                </mxCell>
                <mxCell id="XyzaqsAfcItFlxQhjwxU-76" value="" style="endArrow=classic;html=1;rounded=0;exitX=0.993;exitY=0.171;exitDx=0;exitDy=0;exitPerimeter=0;entryX=0.018;entryY=0.424;entryDx=0;entryDy=0;entryPerimeter=0;" parent="1" edge="1" target="XyzaqsAfcItFlxQhjwxU-45">
                    <mxGeometry width="50" height="50" relative="1" as="geometry">
                        <mxPoint x="1239" y="1670" as="sourcePoint"/>
                        <mxPoint x="1532.5" y="1670" as="targetPoint"/>
                    </mxGeometry>
                </mxCell>
                <mxCell id="4" style="edgeStyle=none;html=1;entryX=0;entryY=0.5;entryDx=0;entryDy=0;" edge="1" parent="1" source="2" target="3">
                    <mxGeometry relative="1" as="geometry"/>
                </mxCell>
                <mxCell id="2" value="&lt;span data-teams=&quot;true&quot;&gt;&lt;font style=&quot;font-size: 11px;&quot;&gt;bus2Master_intf&lt;/font&gt;&lt;/span&gt;" style="rounded=0;whiteSpace=wrap;html=1;" vertex="1" parent="1">
                    <mxGeometry x="610" y="1520" width="120" height="360" as="geometry"/>
                </mxCell>
                <mxCell id="5" style="edgeStyle=none;html=1;entryX=0;entryY=0.5;entryDx=0;entryDy=0;" edge="1" parent="1" source="3" target="XyzaqsAfcItFlxQhjwxU-59">
                    <mxGeometry relative="1" as="geometry"/>
                </mxCell>
                <mxCell id="3" value="&lt;span data-teams=&quot;true&quot;&gt;&lt;font style=&quot;font-size: 11px;&quot;&gt;Slave_protocol&lt;/font&gt;&lt;/span&gt;" style="rounded=0;whiteSpace=wrap;html=1;" vertex="1" parent="1">
                    <mxGeometry x="880" y="1515" width="120" height="360" as="geometry"/>
                </mxCell>
                <mxCell id="12" value="bus_csr_top" style="text;strokeColor=none;align=center;fillColor=none;html=1;verticalAlign=middle;whiteSpace=wrap;rounded=0;" vertex="1" parent="1">
                    <mxGeometry x="1640" y="1430" width="60" height="30" as="geometry"/>
                </mxCell>
                <mxCell id="14" value="clk" style="text;strokeColor=none;align=center;fillColor=none;html=1;verticalAlign=middle;whiteSpace=wrap;rounded=0;" vertex="1" parent="1">
                    <mxGeometry x="1790" y="1560" width="40" height="30" as="geometry"/>
                </mxCell>
                <mxCell id="15" value="rst" style="text;strokeColor=none;align=center;fillColor=none;html=1;verticalAlign=middle;whiteSpace=wrap;rounded=0;" vertex="1" parent="1">
                    <mxGeometry x="1790" y="1590" width="40" height="30" as="geometry"/>
                </mxCell>
                <mxCell id="16" style="edgeStyle=none;html=1;entryX=0.999;entryY=0.366;entryDx=0;entryDy=0;entryPerimeter=0;" edge="1" parent="1" source="15" target="11">
                    <mxGeometry relative="1" as="geometry"/>
                </mxCell>
                <mxCell id="17" style="edgeStyle=none;html=1;exitX=0;exitY=0.5;exitDx=0;exitDy=0;entryX=0.997;entryY=0.314;entryDx=0;entryDy=0;entryPerimeter=0;" edge="1" parent="1" source="14" target="11">
                    <mxGeometry relative="1" as="geometry"/>
                </mxCell>
            </root>
        </mxGraphModel>
    </diagram>
</mxfile>